<svg width="470" height="130" viewBox="0 0 470 130" fill="none" xmlns="http://www.w3.org/2000/svg" role="img" aria-label="SeconAI - Spark concept">
  <defs>
    <linearGradient id="c1" x1="0" y1="0" x2="1" y2="1">
      <stop offset="0%" stop-color="#7C3AED"/>
      <stop offset="50%" stop-color="#DB2777"/>
      <stop offset="100%" stop-color="#06B6D4"/>
    </linearGradient>
  </defs>
  <!-- squircle icon -->
  <g transform="translate(15,23)">
    <rect width="84" height="84" rx="26" fill="url(#c1)"/>
    <!-- big AI sparkle -->
    <path d="M44 20 C44 35 49 40 64 40 C49 40 44 45 44 60 C44 45 39 40 24 40 C39 40 44 35 44 20 Z" fill="#fff"/>
    <!-- small accent sparkle -->
    <path d="M62 58 C62 65 64 67 71 67 C64 67 62 69 62 76 C62 69 60 67 53 67 C60 67 62 65 62 58 Z" fill="#fff" fill-opacity="0.92"/>
  </g>
  <!-- wordmark -->
  <text x="119" y="80" font-family="'Inter','Segoe UI',Arial,sans-serif" font-size="54" font-weight="800" letter-spacing="-2" fill="#0F172A">secon<tspan fill="url(#c1)">ai</tspan></text>
</svg>
